# xmcd
#
# Track frame offsets: 
#        150
#        14520
#        24532
#        36712
#        53427
#        62932
#        73305
#        83985
#        96762
#        109172
#        121300
#        133845
#
# Disc length: 1940 seconds
#
# Revision: 0
# Processed by: cddbd v1.5.2PL0 Copyright (c) Steve Scherf et al.
# Submitted via: ExactAudioCopy v0.95b4
#
DISCID=af07920c
DTITLE=TONICO and TINOCO - A Saudade Vai...
DYEAR=1964
DGENRE=Country
TTITLE0=A Saudade Vai
TTITLE1=Brasil Sertanejo
TTITLE2=Gaúcho Alegre
TTITLE3=Zé Da Carolina
TTITLE4=Tempo Bão
TTITLE5=Quere Bem
TTITLE6=João Boiadeiro
TTITLE7=Tarde Janera
TTITLE8=Sonho De Caboclo
TTITLE9=Pião Arrespeitado
TTITLE10=Velho Carreiro
TTITLE11=Carta De Caboclo
EXTD=
EXTT0=
EXTT1=
EXTT2=
EXTT3=
EXTT4=
EXTT5=
EXTT6=
EXTT7=
EXTT8=
EXTT9=
EXTT10=
EXTT11=
PLAYORDER=
